<svg t="1670208121492" class="icon" viewBox="0 0 1024 1024" version="1.1" xmlns="http://www.w3.org/2000/svg" p-id="17458" width="32" height="32"><path d="M817 182c66.3 0 120 53.7 120 120v420c0 66.3-53.7 120-120 120H207c-66.3 0-120-53.7-120-120V302c0-66.3 53.7-120 120-120h610zM700.8 613.9h-92c-18.8 0-34 15.2-34 34s15.2 34 34 34h92c18.8 0 34-15.2 34-34s-15.3-34-34-34zM351 336c-60.8 0-110 49.2-110 110 0 50.1 33.5 92.4 79.3 105.7-57 13.8-99.3 65.1-99.3 126.3h260c0-61.2-42.3-112.6-99.3-126.4C427.5 538.4 461 496.1 461 446c0-60.8-49.2-110-110-110z m389.8 143.9h-132c-18.8 0-34 15.2-34 34s15.2 34 34 34h132c18.8 0 34-15.2 34-34s-15.3-34-34-34z m50-134h-182c-18.8 0-34 15.2-34 34s15.2 34 34 34h182c18.8 0 34-15.2 34-34s-15.3-34-34-34z" fill="#777" p-id="17459"></path></svg>